<svg width="20" height="23" viewBox="0 0 20 23" fill="none" xmlns="http://www.w3.org/2000/svg">
<path d="M16.0756 6.90102C15.731 8.1847 14.8193 10.5283 12.5069 11.8944C13.363 9.7157 13.7521 7.31321 12.5069 4.69875C11.662 2.93222 9.56087 1.07148 8.3602 0.117549C8.01557 -0.153319 7.54864 0.0704418 7.48193 0.517963C7.31517 1.64854 6.67037 3.6035 4.38021 6.00598C1.68983 8.82065 0 11.6942 0 14.5089C0 17.7711 1.93441 21.8812 4.95831 22.8116C5.44747 22.9647 5.83658 22.4112 5.60311 21.9401C3.16843 17.1705 7.50417 13.1899 7.50417 13.1899C7.50417 19.0783 10.0056 23 13.7521 23C15.831 23 20 21.6928 20 14.4971C20 10.2692 18.0767 7.73718 16.9761 6.63016C16.9073 6.55895 16.8222 6.50789 16.7291 6.48196C16.6361 6.45604 16.5383 6.45614 16.4453 6.48225C16.3523 6.50836 16.2673 6.55959 16.1986 6.63093C16.1299 6.70227 16.0799 6.79128 16.0534 6.88925L16.0756 6.90102Z" fill="black"/>
</svg>
