<svg width="27" height="23" viewBox="0 0 27 23" fill="none" xmlns="http://www.w3.org/2000/svg">
<path fill-rule="evenodd" clip-rule="evenodd" d="M15.7586 2.28588C16.1076 1.59936 16.6441 1.0219 17.3081 0.618176C17.972 0.21445 18.7372 0.000401003 19.518 0H20.9384C21.0669 0 21.1901 0.0501736 21.281 0.139483C21.3718 0.228793 21.4229 0.349922 21.4229 0.476225V4.7051L26.6706 6.42332C26.7666 6.45522 26.8501 6.51594 26.9092 6.59693C26.9683 6.67793 27.0001 6.77511 27 6.87478V8.70349C26.999 9.79847 26.556 10.8483 25.7684 11.6226C24.9807 12.3969 23.9127 12.8323 22.7988 12.8333H19.5625V12.8371C17.5782 12.4238 16.1054 11.3246 15.0396 10.0293C14.3137 9.13728 13.7356 8.13825 13.3266 7.06908L15.7586 2.28588ZM10.8481 7.31291H7.74363C6.16455 7.31094 4.63286 6.78242 3.39898 5.81375L0.788703 3.76027C0.717339 3.70425 0.63132 3.6692 0.540567 3.65917C0.449814 3.64913 0.358022 3.66451 0.275779 3.70354C0.193535 3.74257 0.124189 3.80365 0.0757371 3.87975C0.0272857 3.95585 0.00170249 4.04386 0.00193796 4.13363V19.6681C-0.013181 20.0999 0.0602874 20.5303 0.217965 20.9336C0.375643 21.337 0.614303 21.705 0.919724 22.0157C1.22514 22.3264 1.59108 22.5736 1.99571 22.7423C2.40034 22.9111 2.8354 22.9981 3.27496 22.9981C3.71451 22.9981 4.14957 22.9111 4.55421 22.7423C4.95884 22.5736 5.32477 22.3264 5.63019 22.0157C5.93561 21.705 6.17427 21.337 6.33195 20.9336C6.48963 20.5303 6.5631 20.0999 6.54798 19.6681V18.7537C6.54849 18.3954 6.69368 18.0518 6.95165 17.7986C7.20962 17.5454 7.55928 17.4032 7.92385 17.4032H11.6426C11.8233 17.4032 12.0022 17.4381 12.1691 17.5061C12.336 17.5741 12.4877 17.6737 12.6155 17.7993C12.7432 17.9249 12.8446 18.074 12.9137 18.2381C12.9829 18.4022 13.0184 18.578 13.0184 18.7556V19.67C13.0033 20.1018 13.0768 20.5322 13.2345 20.9355C13.3921 21.3389 13.6308 21.7069 13.9362 22.0176C14.2417 22.3283 14.6076 22.5755 15.0122 22.7442C15.4169 22.913 15.8519 23 16.2915 23C16.731 23 17.1661 22.913 17.5707 22.7442C17.9753 22.5755 18.3413 22.3283 18.6467 22.0176C18.9521 21.7069 19.1908 21.3389 19.3485 20.9355C19.5061 20.5322 19.5796 20.1018 19.5645 19.67V15.2563C16.6771 14.8011 14.5842 13.2562 13.156 11.5265C12.1314 10.2719 11.3497 8.84308 10.85 7.311" fill="black"/>
</svg>
