<svg width="26" height="23" viewBox="0 0 26 23" fill="none" xmlns="http://www.w3.org/2000/svg">
<path d="M3.25 5.12879C3.25 4.11228 4.06758 3.28571 5.07305 3.28571C5.55547 3.28571 6.01758 3.4808 6.36289 3.82478L7.18555 4.65647C6.11914 6.65357 6.30195 9.14866 7.73906 10.9712L7.66797 11.0379C7.19063 11.5205 7.19063 12.3009 7.66797 12.7783C8.14531 13.2558 8.91719 13.2609 9.38945 12.7783L17.5195 4.5692C17.9969 4.08661 17.9969 3.30625 17.5195 2.8288C17.0422 2.35134 16.2703 2.34621 15.798 2.8288L15.732 2.89554C13.9293 1.44263 11.4613 1.25781 9.48594 2.33594L8.6582 1.50424C7.70859 0.539063 6.41875 0 5.07305 0C2.26992 0 0 2.29487 0 5.12879V21.3571C0 22.2658 0.726172 23 1.625 23C2.52383 23 3.25 22.2658 3.25 21.3571V5.12879ZM13 16.4286C13.8988 16.4286 14.625 15.6944 14.625 14.7857C14.625 13.877 13.8988 13.1429 13 13.1429C12.1012 13.1429 11.375 13.877 11.375 14.7857C11.375 15.6944 12.1012 16.4286 13 16.4286ZM16.25 19.7143C16.25 18.8056 15.5238 18.0714 14.625 18.0714C13.7262 18.0714 13 18.8056 13 19.7143C13 20.623 13.7262 21.3571 14.625 21.3571C15.5238 21.3571 16.25 20.623 16.25 19.7143ZM16.25 13.1429C17.1488 13.1429 17.875 12.4087 17.875 11.5C17.875 10.5913 17.1488 9.85714 16.25 9.85714C15.3512 9.85714 14.625 10.5913 14.625 11.5C14.625 12.4087 15.3512 13.1429 16.25 13.1429ZM19.5 16.4286C19.5 15.5199 18.7738 14.7857 17.875 14.7857C16.9762 14.7857 16.25 15.5199 16.25 16.4286C16.25 17.3373 16.9762 18.0714 17.875 18.0714C18.7738 18.0714 19.5 17.3373 19.5 16.4286ZM19.5 9.85714C20.3988 9.85714 21.125 9.12299 21.125 8.21429C21.125 7.30558 20.3988 6.57143 19.5 6.57143C18.6012 6.57143 17.875 7.30558 17.875 8.21429C17.875 9.12299 18.6012 9.85714 19.5 9.85714ZM22.75 13.1429C22.75 12.2342 22.0238 11.5 21.125 11.5C20.2262 11.5 19.5 12.2342 19.5 13.1429C19.5 14.0516 20.2262 14.7857 21.125 14.7857C22.0238 14.7857 22.75 14.0516 22.75 13.1429ZM24.375 11.5C25.2738 11.5 26 10.7658 26 9.85714C26 8.94844 25.2738 8.21429 24.375 8.21429C23.4762 8.21429 22.75 8.94844 22.75 9.85714C22.75 10.7658 23.4762 11.5 24.375 11.5Z" fill="black"/>
</svg>
