<svg width="23" height="23" viewBox="0 0 23 23" fill="none" xmlns="http://www.w3.org/2000/svg">
<path fill-rule="evenodd" clip-rule="evenodd" d="M21.75 8.1185C22.5 8.1185 22.5 8.1175 22.5 8.1175V8.0885L22.499 8.076L22.495 8.003C22.4892 7.92043 22.4809 7.83805 22.47 7.756C22.4243 7.43166 22.3634 7.10964 22.2875 6.791C22.0855 5.914 21.688 4.5295 20.907 2.445C20.479 1.3025 19.482 0.442 18.218 0.302C16.9055 0.1565 14.695 0 11.25 0C7.805 0 5.5945 0.1565 4.282 0.302C3.018 0.442 2.0215 1.3025 1.593 2.445C0.812003 4.5295 0.414503 5.914 0.212503 6.791C0.136819 7.10965 0.0760864 7.43167 0.0305031 7.756C0.01622 7.86222 0.006212 7.96897 0.000503145 8.076V8.1105L3.12134e-06 8.1145V8.1175C3.12134e-06 8.1175 3.09944e-06 8.1185 0.750003 8.1185L3.12134e-06 8.1175C-0.00120753 9.00829 0.349802 9.86444 0.976503 10.4975V14.179C0.976503 16.376 1.065 18.0235 1.1645 19.1825C1.315 20.935 2.7085 22.217 4.4215 22.322C5.8775 22.411 8.1165 22.5 11.2505 22.5C14.3845 22.5 16.6235 22.411 18.0795 22.322C19.7925 22.217 21.186 20.935 21.3365 19.182C21.4365 18.0235 21.5245 16.376 21.5245 14.179V10.4965C22.1506 9.86353 22.5012 9.00781 22.5 8.1175L21.75 8.1185ZM19.5245 11.4765C18.9572 11.5448 18.3819 11.4674 17.8527 11.2518C17.3236 11.0362 16.858 10.6893 16.5 10.244C15.8815 11.01 14.936 11.5 13.875 11.5C12.814 11.5 11.8685 11.01 11.25 10.244C10.6315 11.01 9.686 11.5 8.625 11.5C7.564 11.5 6.6185 11.01 6 10.244C5.64208 10.6892 5.17671 11.0359 4.64775 11.2515C4.11879 11.4672 3.54365 11.5446 2.9765 11.4765V14.179C2.9765 16.3225 3.063 17.9125 3.157 19.011C3.2195 19.7335 3.777 20.279 4.544 20.326C5.269 20.37 6.2 20.415 7.354 20.448C7.348 20.033 7.345 19.571 7.345 19.058C7.345 17.318 7.382 16.167 7.4235 15.4265C7.4665 14.6545 7.9185 14.014 8.6795 13.8775C9.253 13.775 10.081 13.6895 11.2495 13.6895C12.418 13.6895 13.246 13.7745 13.8195 13.8775C14.5805 14.014 15.0325 14.6545 15.0755 15.4265C15.117 16.167 15.1545 17.3185 15.1545 19.0585C15.1545 19.5705 15.1515 20.0337 15.1455 20.448C16.0833 20.4224 17.0206 20.3816 17.957 20.3255C18.7235 20.2785 19.282 19.7335 19.344 19.011C19.438 17.9125 19.5245 16.3225 19.5245 14.179V11.4765Z" fill="black"/>
</svg>
